# xmcd CD database file
#
# Track frame offsets:
#	150
#	26361
#	50676
#	80936
#	102357
#	128299
#	154645
#	180142
#	200293
#	222739
#	241477
#
# Disc length: 3459 seconds
#
# Revision: 0
# Processed by: cddbd v1.5.2PL0 Copyright (c) Steve Scherf et al.
# Submitted via: CDex 1.51
#
DISCID=8d0d810b
DTITLE=Mana - Por Fin Mana Comenzo La Fiesta
DYEAR=2007
DGENRE=Salsa
TTITLE0=Azucare
TTITLE1=Comenzo la Fiesta
TTITLE2=Y Yo
TTITLE3=Donde Esta
TTITLE4=Monte Adrentro
TTITLE5=No Hay Mal
TTITLE6=El que no Sufre
TTITLE7=Tu Bon Bon
TTITLE8=Por Fin
TTITLE9=Tremendo Coco
TTITLE10=Con Maña
EXTD=YEAR: 2007
EXTT0=
EXTT1=
EXTT2=
EXTT3=
EXTT4=
EXTT5=
EXTT6=
EXTT7=
EXTT8=
EXTT9=
EXTT10=
PLAYORDER=
